<svg width="65" height="65" viewBox="0 0 65 65" fill="none" xmlns="http://www.w3.org/2000/svg">
<path d="M32.0208 64.0416C36.2258 64.0416 40.3897 63.2134 44.2747 61.6042C48.1596 59.995 51.6895 57.6364 54.6629 54.6629C57.6364 51.6895 59.995 48.1596 61.6042 44.2747C63.2134 40.3897 64.0416 36.2258 64.0416 32.0208C64.0416 27.8158 63.2134 23.6519 61.6042 19.767C59.995 15.882 57.6364 12.3521 54.6629 9.37868C51.6895 6.40528 48.1596 4.04664 44.2746 2.43745C40.3897 0.82825 36.2258 7.26178e-06 32.0208 7.62939e-06L32.0208 32.0208V64.0416Z" fill="#FFCC4E"/>
<path d="M52.0416 32.0416L37.0416 40.7019L40.0416 32.0416L37.0416 23.3814L52.0416 32.0416Z" fill="white"/>
</svg>
