<svg width="65" height="65" viewBox="0 0 65 65" fill="none" xmlns="http://www.w3.org/2000/svg">
<path d="M32.0208 0C27.8158 0 23.6519 0.828243 19.767 2.43744C15.882 4.04663 12.3521 6.40527 9.37868 9.37868C6.40527 12.3521 4.04663 15.882 2.43744 19.767C0.828242 23.6519 -1.83808e-07 27.8158 0 32.0208C1.83808e-07 36.2258 0.828243 40.3897 2.43744 44.2746C4.04664 48.1596 6.40527 51.6895 9.37868 54.6629C12.3521 57.6363 15.882 59.995 19.767 61.6042C23.6519 63.2134 27.8158 64.0416 32.0208 64.0416L32.0208 32.0208L32.0208 0Z" fill="#FFCC4E"/>
<path d="M12 32L27 23.3397L24 32L27 40.6602L12 32Z" fill="white"/>
</svg>
